<?xml version="1.0" encoding="iso-8859-1"?>
<!-- Generator: Adobe Illustrator 16.0.0, SVG Export Plug-In . SVG Version: 6.00 Build 0)  -->
<!DOCTYPE svg PUBLIC "-//W3C//DTD SVG 1.1//EN" "http://www.w3.org/Graphics/SVG/1.1/DTD/svg11.dtd">
<svg version="1.1" id="Layer_1" xmlns="http://www.w3.org/2000/svg" xmlns:xlink="http://www.w3.org/1999/xlink" x="0px" y="0px"
	 width="1099px" height="27px" viewBox="0 0 1099 27" style="enable-background:new 0 0 1099 27;" xml:space="preserve">
<g>
	<g>
		<path d="M7,6c-0.39,0-0.78-0.16-1.06-0.44C5.659,5.28,5.5,4.9,5.5,4.5c0-0.39,0.16-0.78,0.44-1.06c0.56-0.56,1.56-0.56,2.12,0
			C8.339,3.72,8.5,4.11,8.5,4.5c0,0.4-0.16,0.78-0.44,1.06C7.779,5.84,7.399,6,7,6z"/>
	</g>
	<g>
		<path d="M1082.03,4.5c0-0.83,0.67-1.5,1.5-1.5l0,0c0.829,0,1.5,0.67,1.5,1.5l0,0c0,0.83-0.671,1.5-1.5,1.5l0,0
			C1082.7,6,1082.03,5.33,1082.03,4.5z M1069.059,4.5c0-0.83,0.67-1.5,1.5-1.5l0,0c0.83,0,1.5,0.67,1.5,1.5l0,0
			c0,0.83-0.67,1.5-1.5,1.5l0,0C1069.729,6,1069.059,5.33,1069.059,4.5z M1056.089,4.5c0-0.83,0.67-1.5,1.5-1.5l0,0
			c0.83,0,1.5,0.67,1.5,1.5l0,0c0,0.83-0.67,1.5-1.5,1.5l0,0C1056.759,6,1056.089,5.33,1056.089,4.5z M1043.12,4.5
			c0-0.83,0.67-1.5,1.5-1.5l0,0c0.83,0,1.5,0.67,1.5,1.5l0,0c0,0.83-0.67,1.5-1.5,1.5l0,0C1043.79,6,1043.12,5.33,1043.12,4.5z
			 M1030.149,4.5c0-0.83,0.67-1.5,1.5-1.5l0,0c0.83,0,1.5,0.67,1.5,1.5l0,0c0,0.83-0.67,1.5-1.5,1.5l0,0
			C1030.819,6,1030.149,5.33,1030.149,4.5z M1017.179,4.5c0-0.83,0.67-1.5,1.5-1.5l0,0c0.83,0,1.5,0.67,1.5,1.5l0,0
			c0,0.83-0.67,1.5-1.5,1.5l0,0C1017.849,6,1017.179,5.33,1017.179,4.5z M1004.209,4.5c0-0.83,0.67-1.5,1.5-1.5l0,0
			c0.83,0,1.5,0.67,1.5,1.5l0,0c0,0.83-0.67,1.5-1.5,1.5l0,0C1004.879,6,1004.209,5.33,1004.209,4.5z M991.24,4.5
			c0-0.83,0.67-1.5,1.5-1.5l0,0c0.829,0,1.5,0.67,1.5,1.5l0,0c0,0.83-0.671,1.5-1.5,1.5l0,0C991.91,6,991.24,5.33,991.24,4.5z
			 M978.269,4.5c0-0.83,0.67-1.5,1.5-1.5l0,0c0.83,0,1.5,0.67,1.5,1.5l0,0c0,0.83-0.67,1.5-1.5,1.5l0,0
			C978.939,6,978.269,5.33,978.269,4.5z M965.299,4.5c0-0.83,0.67-1.5,1.5-1.5l0,0c0.82,0,1.5,0.67,1.5,1.5l0,0
			c0,0.83-0.68,1.5-1.5,1.5l0,0C965.969,6,965.299,5.33,965.299,4.5z M952.319,4.5c0-0.83,0.681-1.5,1.511-1.5l0,0
			c0.819,0,1.5,0.67,1.5,1.5l0,0c0,0.83-0.681,1.5-1.5,1.5l0,0C953,6,952.319,5.33,952.319,4.5z M939.359,4.5
			c0-0.83,0.671-1.5,1.5-1.5l0,0c0.83,0,1.5,0.67,1.5,1.5l0,0c0,0.83-0.67,1.5-1.5,1.5l0,0C940.03,6,939.359,5.33,939.359,4.5z
			 M926.389,4.5c0-0.83,0.67-1.5,1.5-1.5l0,0c0.82,0,1.5,0.67,1.5,1.5l0,0c0,0.83-0.68,1.5-1.5,1.5l0,0
			C927.059,6,926.389,5.33,926.389,4.5z M913.419,4.5c0-0.83,0.66-1.5,1.5-1.5l0,0c0.82,0,1.5,0.67,1.5,1.5l0,0
			c0,0.83-0.68,1.5-1.5,1.5l0,0C914.08,6,913.419,5.33,913.419,4.5z M900.439,4.5c0-0.83,0.681-1.5,1.5-1.5l0,0
			c0.83,0,1.5,0.67,1.5,1.5l0,0c0,0.83-0.67,1.5-1.5,1.5l0,0C901.12,6,900.439,5.33,900.439,4.5z M887.469,4.5
			c0-0.83,0.68-1.5,1.5-1.5l0,0c0.83,0,1.5,0.67,1.5,1.5l0,0c0,0.83-0.67,1.5-1.5,1.5l0,0C888.149,6,887.469,5.33,887.469,4.5z
			 M874.509,4.5c0-0.83,0.67-1.5,1.5-1.5l0,0c0.82,0,1.5,0.67,1.5,1.5l0,0c0,0.83-0.68,1.5-1.5,1.5l0,0
			C875.179,6,874.509,5.33,874.509,4.5z M861.54,4.5c0-0.83,0.66-1.5,1.5-1.5l0,0c0.819,0,1.49,0.67,1.49,1.5l0,0
			c0,0.83-0.671,1.5-1.49,1.5l0,0C862.2,6,861.54,5.33,861.54,4.5z M848.559,4.5c0-0.83,0.681-1.5,1.5-1.5l0,0
			c0.83,0,1.5,0.67,1.5,1.5l0,0c0,0.83-0.67,1.5-1.5,1.5l0,0C849.24,6,848.559,5.33,848.559,4.5z M835.589,4.5
			c0-0.83,0.68-1.5,1.5-1.5l0,0c0.83,0,1.5,0.67,1.5,1.5l0,0c0,0.83-0.67,1.5-1.5,1.5l0,0C836.269,6,835.589,5.33,835.589,4.5z
			 M822.62,4.5c0-0.83,0.67-1.5,1.5-1.5l0,0c0.83,0,1.5,0.67,1.5,1.5l0,0c0,0.83-0.67,1.5-1.5,1.5l0,0
			C823.29,6,822.62,5.33,822.62,4.5z M809.649,4.5c0-0.83,0.67-1.5,1.5-1.5l0,0c0.83,0,1.5,0.67,1.5,1.5l0,0
			c0,0.83-0.67,1.5-1.5,1.5l0,0C810.319,6,809.649,5.33,809.649,4.5z M796.679,4.5c0-0.83,0.67-1.5,1.5-1.5l0,0
			c0.83,0,1.5,0.67,1.5,1.5l0,0c0,0.83-0.67,1.5-1.5,1.5l0,0C797.349,6,796.679,5.33,796.679,4.5z M783.709,4.5
			c0-0.83,0.67-1.5,1.5-1.5l0,0c0.83,0,1.5,0.67,1.5,1.5l0,0c0,0.83-0.67,1.5-1.5,1.5l0,0C784.379,6,783.709,5.33,783.709,4.5z
			 M770.74,4.5c0-0.83,0.67-1.5,1.5-1.5l0,0c0.829,0,1.5,0.67,1.5,1.5l0,0c0,0.83-0.671,1.5-1.5,1.5l0,0
			C771.41,6,770.74,5.33,770.74,4.5z M757.769,4.5c0-0.83,0.67-1.5,1.5-1.5l0,0c0.83,0,1.5,0.67,1.5,1.5l0,0
			c0,0.83-0.67,1.5-1.5,1.5l0,0C758.439,6,757.769,5.33,757.769,4.5z M744.799,4.5c0-0.83,0.67-1.5,1.5-1.5l0,0
			c0.83,0,1.5,0.67,1.5,1.5l0,0c0,0.83-0.67,1.5-1.5,1.5l0,0C745.469,6,744.799,5.33,744.799,4.5z M731.83,4.5
			c0-0.83,0.67-1.5,1.5-1.5l0,0c0.83,0,1.5,0.67,1.5,1.5l0,0c0,0.83-0.67,1.5-1.5,1.5l0,0C732.5,6,731.83,5.33,731.83,4.5z
			 M718.859,4.5c0-0.83,0.671-1.5,1.5-1.5l0,0c0.83,0,1.5,0.67,1.5,1.5l0,0c0,0.83-0.67,1.5-1.5,1.5l0,0
			C719.53,6,718.859,5.33,718.859,4.5z M705.889,4.5c0-0.83,0.67-1.5,1.5-1.5l0,0c0.83,0,1.5,0.67,1.5,1.5l0,0
			c0,0.83-0.67,1.5-1.5,1.5l0,0C706.559,6,705.889,5.33,705.889,4.5z M692.919,4.5c0-0.83,0.67-1.5,1.5-1.5l0,0
			c0.83,0,1.5,0.67,1.5,1.5l0,0c0,0.83-0.67,1.5-1.5,1.5l0,0C693.589,6,692.919,5.33,692.919,4.5z M679.95,4.5
			c0-0.83,0.67-1.5,1.5-1.5l0,0c0.83,0,1.5,0.67,1.5,1.5l0,0c0,0.83-0.67,1.5-1.5,1.5l0,0C680.62,6,679.95,5.33,679.95,4.5z
			 M666.979,4.5c0-0.83,0.67-1.5,1.5-1.5l0,0c0.83,0,1.5,0.67,1.5,1.5l0,0c0,0.83-0.67,1.5-1.5,1.5l0,0
			C667.649,6,666.979,5.33,666.979,4.5z M654.009,4.5c0-0.83,0.67-1.5,1.5-1.5l0,0c0.83,0,1.5,0.67,1.5,1.5l0,0
			c0,0.83-0.67,1.5-1.5,1.5l0,0C654.679,6,654.009,5.33,654.009,4.5z M641.04,4.5c0-0.83,0.67-1.5,1.5-1.5l0,0
			c0.83,0,1.5,0.67,1.5,1.5l0,0c0,0.83-0.67,1.5-1.5,1.5l0,0C641.709,6,641.04,5.33,641.04,4.5z M628.069,4.5
			c0-0.83,0.671-1.5,1.5-1.5l0,0c0.83,0,1.5,0.67,1.5,1.5l0,0c0,0.83-0.67,1.5-1.5,1.5l0,0C628.74,6,628.069,5.33,628.069,4.5z
			 M615.099,4.5c0-0.83,0.67-1.5,1.5-1.5l0,0c0.83,0,1.5,0.67,1.5,1.5l0,0c0,0.83-0.67,1.5-1.5,1.5l0,0
			C615.769,6,615.099,5.33,615.099,4.5z M602.129,4.5c0-0.83,0.67-1.5,1.5-1.5l0,0c0.83,0,1.5,0.67,1.5,1.5l0,0
			c0,0.83-0.67,1.5-1.5,1.5l0,0C602.799,6,602.129,5.33,602.129,4.5z M589.16,4.5c0-0.83,0.67-1.5,1.5-1.5l0,0
			c0.83,0,1.5,0.67,1.5,1.5l0,0c0,0.83-0.67,1.5-1.5,1.5l0,0C589.83,6,589.16,5.33,589.16,4.5z M576.189,4.5
			c0-0.83,0.67-1.5,1.5-1.5l0,0c0.83,0,1.5,0.67,1.5,1.5l0,0c0,0.83-0.67,1.5-1.5,1.5l0,0C576.859,6,576.189,5.33,576.189,4.5z
			 M563.219,4.5c0-0.83,0.67-1.5,1.5-1.5l0,0c0.83,0,1.5,0.67,1.5,1.5l0,0c0,0.83-0.67,1.5-1.5,1.5l0,0
			C563.889,6,563.219,5.33,563.219,4.5z M550.25,4.5c0-0.83,0.67-1.5,1.5-1.5l0,0c0.83,0,1.5,0.67,1.5,1.5l0,0
			c0,0.83-0.67,1.5-1.5,1.5l0,0C550.919,6,550.25,5.33,550.25,4.5z M537.28,4.5c0-0.83,0.67-1.5,1.5-1.5l0,0
			c0.829,0,1.5,0.67,1.5,1.5l0,0c0,0.83-0.671,1.5-1.5,1.5l0,0C537.95,6,537.28,5.33,537.28,4.5z M524.309,4.5
			c0-0.83,0.67-1.5,1.5-1.5l0,0c0.83,0,1.5,0.67,1.5,1.5l0,0c0,0.83-0.67,1.5-1.5,1.5l0,0C524.979,6,524.309,5.33,524.309,4.5z
			 M511.339,4.5c0-0.83,0.67-1.5,1.5-1.5l0,0c0.83,0,1.5,0.67,1.5,1.5l0,0c0,0.83-0.67,1.5-1.5,1.5l0,0
			C512.009,6,511.339,5.33,511.339,4.5z M498.37,4.5c0-0.83,0.67-1.5,1.5-1.5l0,0c0.83,0,1.5,0.67,1.5,1.5l0,0
			c0,0.83-0.67,1.5-1.5,1.5l0,0C499.04,6,498.37,5.33,498.37,4.5z M485.399,4.5c0-0.83,0.67-1.5,1.5-1.5l0,0
			c0.83,0,1.5,0.67,1.5,1.5l0,0c0,0.83-0.67,1.5-1.5,1.5l0,0C486.069,6,485.399,5.33,485.399,4.5z M472.429,4.5
			c0-0.83,0.67-1.5,1.5-1.5l0,0c0.83,0,1.5,0.67,1.5,1.5l0,0c0,0.83-0.67,1.5-1.5,1.5l0,0C473.099,6,472.429,5.33,472.429,4.5z
			 M459.459,4.5c0-0.83,0.67-1.5,1.5-1.5l0,0c0.83,0,1.5,0.67,1.5,1.5l0,0c0,0.83-0.67,1.5-1.5,1.5l0,0
			C460.129,6,459.459,5.33,459.459,4.5z M446.489,4.5c0-0.83,0.67-1.5,1.5-1.5l0,0c0.82,0,1.5,0.67,1.5,1.5l0,0
			c0,0.83-0.68,1.5-1.5,1.5l0,0C447.159,6,446.489,5.33,446.489,4.5z M433.52,4.5c0-0.83,0.67-1.5,1.5-1.5l0,0
			c0.83,0,1.5,0.67,1.5,1.5l0,0c0,0.83-0.67,1.5-1.5,1.5l0,0C434.189,6,433.52,5.33,433.52,4.5z M420.549,4.5
			c0-0.83,0.67-1.5,1.5-1.5l0,0c0.83,0,1.5,0.67,1.5,1.5l0,0c0,0.83-0.67,1.5-1.5,1.5l0,0C421.219,6,420.549,5.33,420.549,4.5z
			 M407.579,4.5c0-0.83,0.67-1.5,1.5-1.5l0,0c0.83,0,1.5,0.67,1.5,1.5l0,0c0,0.83-0.67,1.5-1.5,1.5l0,0
			C408.25,6,407.579,5.33,407.579,4.5z M394.609,4.5c0-0.83,0.67-1.5,1.5-1.5l0,0c0.83,0,1.5,0.67,1.5,1.5l0,0
			c0,0.83-0.67,1.5-1.5,1.5l0,0C395.279,6,394.609,5.33,394.609,4.5z M381.639,4.5c0-0.83,0.67-1.5,1.5-1.5l0,0
			c0.82,0,1.5,0.67,1.5,1.5l0,0c0,0.83-0.68,1.5-1.5,1.5l0,0C382.31,6,381.639,5.33,381.639,4.5z M368.669,4.5
			c0-0.83,0.67-1.5,1.5-1.5l0,0c0.83,0,1.5,0.67,1.5,1.5l0,0c0,0.83-0.67,1.5-1.5,1.5l0,0C369.339,6,368.669,5.33,368.669,4.5z
			 M355.699,4.5c0-0.83,0.67-1.5,1.5-1.5l0,0c0.83,0,1.5,0.67,1.5,1.5l0,0c0,0.83-0.67,1.5-1.5,1.5l0,0
			C356.369,6,355.699,5.33,355.699,4.5z M342.729,4.5c0-0.83,0.67-1.5,1.5-1.5l0,0c0.82,0,1.5,0.67,1.5,1.5l0,0
			c0,0.83-0.68,1.5-1.5,1.5l0,0C343.399,6,342.729,5.33,342.729,4.5z M329.759,4.5c0-0.83,0.67-1.5,1.5-1.5l0,0
			c0.82,0,1.5,0.67,1.5,1.5l0,0c0,0.83-0.68,1.5-1.5,1.5l0,0C330.429,6,329.759,5.33,329.759,4.5z M316.79,4.5
			c0-0.83,0.67-1.5,1.49-1.5l0,0c0.83,0,1.51,0.67,1.51,1.5l0,0c0,0.83-0.68,1.5-1.51,1.5l0,0C317.459,6,316.79,5.33,316.79,4.5z
			 M303.819,4.5c0-0.83,0.67-1.5,1.5-1.5l0,0c0.82,0,1.5,0.67,1.5,1.5l0,0c0,0.83-0.68,1.5-1.5,1.5l0,0
			C304.489,6,303.819,5.33,303.819,4.5z M290.849,4.5c0-0.83,0.67-1.5,1.5-1.5l0,0c0.82,0,1.5,0.67,1.5,1.5l0,0
			c0,0.83-0.68,1.5-1.5,1.5l0,0C291.52,6,290.849,5.33,290.849,4.5z M277.879,4.5c0-0.83,0.67-1.5,1.5-1.5l0,0
			c0.82,0,1.5,0.67,1.5,1.5l0,0c0,0.83-0.68,1.5-1.5,1.5l0,0C278.549,6,277.879,5.33,277.879,4.5z M264.899,4.5
			c0-0.83,0.68-1.5,1.5-1.5l0,0c0.83,0,1.5,0.67,1.5,1.5l0,0c0,0.83-0.67,1.5-1.5,1.5l0,0C265.579,6,264.899,5.33,264.899,4.5z
			 M251.929,4.5c0-0.83,0.68-1.5,1.5-1.5l0,0c0.83,0,1.5,0.67,1.5,1.5l0,0c0,0.83-0.67,1.5-1.5,1.5l0,0
			C252.609,6,251.929,5.33,251.929,4.5z M238.969,4.5c0-0.83,0.67-1.5,1.5-1.5l0,0c0.82,0,1.5,0.67,1.5,1.5l0,0
			c0,0.83-0.68,1.5-1.5,1.5l0,0C239.639,6,238.969,5.33,238.969,4.5z M225.989,4.5c0-0.83,0.68-1.5,1.51-1.5l0,0
			c0.82,0,1.5,0.67,1.5,1.5l0,0c0,0.83-0.68,1.5-1.5,1.5l0,0C226.669,6,225.989,5.33,225.989,4.5z M213.02,4.5
			c0-0.83,0.68-1.5,1.5-1.5l0,0c0.83,0,1.5,0.67,1.5,1.5l0,0c0,0.83-0.67,1.5-1.5,1.5l0,0C213.699,6,213.02,5.33,213.02,4.5z
			 M200.049,4.5c0-0.83,0.68-1.5,1.5-1.5l0,0c0.83,0,1.5,0.67,1.5,1.5l0,0c0,0.83-0.67,1.5-1.5,1.5l0,0
			C200.729,6,200.049,5.33,200.049,4.5z M187.079,4.5c0-0.83,0.67-1.5,1.5-1.5l0,0c0.83,0,1.5,0.67,1.5,1.5l0,0
			c0,0.83-0.67,1.5-1.5,1.5l0,0C187.75,6,187.079,5.33,187.079,4.5z M174.109,4.5c0-0.83,0.67-1.5,1.5-1.5l0,0
			c0.83,0,1.5,0.67,1.5,1.5l0,0c0,0.83-0.67,1.5-1.5,1.5l0,0C174.779,6,174.109,5.33,174.109,4.5z M161.139,4.5
			c0-0.83,0.68-1.5,1.5-1.5l0,0c0.83,0,1.5,0.67,1.5,1.5l0,0c0,0.83-0.67,1.5-1.5,1.5l0,0C161.819,6,161.139,5.33,161.139,4.5z
			 M148.169,4.5c0-0.83,0.67-1.5,1.5-1.5l0,0c0.83,0,1.5,0.67,1.5,1.5l0,0c0,0.83-0.67,1.5-1.5,1.5l0,0
			C148.839,6,148.169,5.33,148.169,4.5z M135.199,4.5c0-0.83,0.67-1.5,1.5-1.5l0,0c0.83,0,1.5,0.67,1.5,1.5l0,0
			c0,0.83-0.67,1.5-1.5,1.5l0,0C135.869,6,135.199,5.33,135.199,4.5z M122.229,4.5c0-0.83,0.67-1.5,1.5-1.5l0,0
			c0.83,0,1.5,0.67,1.5,1.5l0,0c0,0.83-0.67,1.5-1.5,1.5l0,0C122.899,6,122.229,5.33,122.229,4.5z M109.259,4.5
			c0-0.83,0.67-1.5,1.5-1.5l0,0c0.83,0,1.5,0.67,1.5,1.5l0,0c0,0.83-0.67,1.5-1.5,1.5l0,0C109.929,6,109.259,5.33,109.259,4.5z
			 M96.29,4.5c0-0.83,0.67-1.5,1.5-1.5l0,0c0.83,0,1.5,0.67,1.5,1.5l0,0c0,0.83-0.67,1.5-1.5,1.5l0,0C96.959,6,96.29,5.33,96.29,4.5
			z M83.319,4.5c0-0.83,0.67-1.5,1.5-1.5l0,0c0.83,0,1.5,0.67,1.5,1.5l0,0c0,0.83-0.67,1.5-1.5,1.5l0,0
			C83.989,6,83.319,5.33,83.319,4.5z M70.349,4.5c0-0.83,0.67-1.5,1.5-1.5l0,0c0.83,0,1.5,0.67,1.5,1.5l0,0c0,0.83-0.67,1.5-1.5,1.5
			l0,0C71.02,6,70.349,5.33,70.349,4.5z M57.379,4.5c0-0.83,0.67-1.5,1.5-1.5l0,0c0.83,0,1.5,0.67,1.5,1.5l0,0
			c0,0.83-0.67,1.5-1.5,1.5l0,0C58.049,6,57.379,5.33,57.379,4.5z M44.409,4.5c0-0.83,0.67-1.5,1.5-1.5l0,0c0.83,0,1.5,0.67,1.5,1.5
			l0,0c0,0.83-0.67,1.5-1.5,1.5l0,0C45.079,6,44.409,5.33,44.409,4.5z M31.439,4.5c0-0.83,0.67-1.5,1.5-1.5l0,0
			c0.83,0,1.5,0.67,1.5,1.5l0,0c0,0.83-0.67,1.5-1.5,1.5l0,0C32.109,6,31.439,5.33,31.439,4.5z M18.469,4.5c0-0.83,0.67-1.5,1.5-1.5
			l0,0c0.83,0,1.5,0.67,1.5,1.5l0,0c0,0.83-0.67,1.5-1.5,1.5l0,0C19.139,6,18.469,5.33,18.469,4.5z"/>
	</g>
	<g>
		<path d="M1096.5,6c-0.391,0-0.78-0.16-1.061-0.44C1095.16,5.28,1095,4.89,1095,4.5c0-0.39,0.16-0.78,0.439-1.06
			c0.561-0.56,1.561-0.56,2.12,0c0.28,0.28,0.44,0.67,0.44,1.06c0,0.39-0.16,0.78-0.44,1.06C1097.28,5.84,1096.899,6,1096.5,6z"/>
	</g>
</g>
<g>
	<g>
		<path d="M7,15.5c-0.39,0-0.78-0.16-1.06-0.44C5.659,14.78,5.5,14.39,5.5,14c0-0.39,0.16-0.78,0.44-1.06
			c0.56-0.56,1.56-0.56,2.12,0C8.339,13.22,8.5,13.61,8.5,14c0,0.39-0.16,0.78-0.44,1.06C7.779,15.34,7.389,15.5,7,15.5z"/>
	</g>
	<g>
		<path d="M1082.03,14c0-0.83,0.67-1.5,1.5-1.5l0,0c0.829,0,1.5,0.67,1.5,1.5l0,0c0,0.83-0.671,1.5-1.5,1.5l0,0
			C1082.7,15.5,1082.03,14.83,1082.03,14z M1069.059,14c0-0.83,0.67-1.5,1.5-1.5l0,0c0.83,0,1.5,0.67,1.5,1.5l0,0
			c0,0.83-0.67,1.5-1.5,1.5l0,0C1069.729,15.5,1069.059,14.83,1069.059,14z M1056.089,14c0-0.83,0.67-1.5,1.5-1.5l0,0
			c0.83,0,1.5,0.67,1.5,1.5l0,0c0,0.83-0.67,1.5-1.5,1.5l0,0C1056.759,15.5,1056.089,14.83,1056.089,14z M1043.12,14
			c0-0.83,0.67-1.5,1.5-1.5l0,0c0.83,0,1.5,0.67,1.5,1.5l0,0c0,0.83-0.67,1.5-1.5,1.5l0,0C1043.79,15.5,1043.12,14.83,1043.12,14z
			 M1030.149,14c0-0.83,0.67-1.5,1.5-1.5l0,0c0.83,0,1.5,0.67,1.5,1.5l0,0c0,0.83-0.67,1.5-1.5,1.5l0,0
			C1030.819,15.5,1030.149,14.83,1030.149,14z M1017.179,14c0-0.83,0.67-1.5,1.5-1.5l0,0c0.83,0,1.5,0.67,1.5,1.5l0,0
			c0,0.83-0.67,1.5-1.5,1.5l0,0C1017.849,15.5,1017.179,14.83,1017.179,14z M1004.209,14c0-0.83,0.67-1.5,1.5-1.5l0,0
			c0.83,0,1.5,0.67,1.5,1.5l0,0c0,0.83-0.67,1.5-1.5,1.5l0,0C1004.879,15.5,1004.209,14.83,1004.209,14z M991.24,14
			c0-0.83,0.67-1.5,1.5-1.5l0,0c0.829,0,1.5,0.67,1.5,1.5l0,0c0,0.83-0.671,1.5-1.5,1.5l0,0C991.91,15.5,991.24,14.83,991.24,14z
			 M978.269,14c0-0.83,0.67-1.5,1.5-1.5l0,0c0.83,0,1.5,0.67,1.5,1.5l0,0c0,0.83-0.67,1.5-1.5,1.5l0,0
			C978.939,15.5,978.269,14.83,978.269,14z M965.299,14c0-0.83,0.67-1.5,1.5-1.5l0,0c0.82,0,1.5,0.67,1.5,1.5l0,0
			c0,0.83-0.68,1.5-1.5,1.5l0,0C965.969,15.5,965.299,14.83,965.299,14z M952.319,14c0-0.83,0.681-1.5,1.511-1.5l0,0
			c0.819,0,1.5,0.67,1.5,1.5l0,0c0,0.83-0.681,1.5-1.5,1.5l0,0C953,15.5,952.319,14.83,952.319,14z M939.359,14
			c0-0.83,0.671-1.5,1.5-1.5l0,0c0.83,0,1.5,0.67,1.5,1.5l0,0c0,0.83-0.67,1.5-1.5,1.5l0,0C940.03,15.5,939.359,14.83,939.359,14z
			 M926.389,14c0-0.83,0.67-1.5,1.5-1.5l0,0c0.82,0,1.5,0.67,1.5,1.5l0,0c0,0.83-0.68,1.5-1.5,1.5l0,0
			C927.059,15.5,926.389,14.83,926.389,14z M913.419,14c0-0.83,0.66-1.5,1.5-1.5l0,0c0.82,0,1.5,0.67,1.5,1.5l0,0
			c0,0.83-0.68,1.5-1.5,1.5l0,0C914.08,15.5,913.419,14.83,913.419,14z M900.439,14c0-0.83,0.681-1.5,1.5-1.5l0,0
			c0.83,0,1.5,0.67,1.5,1.5l0,0c0,0.83-0.67,1.5-1.5,1.5l0,0C901.12,15.5,900.439,14.83,900.439,14z M887.469,14
			c0-0.83,0.68-1.5,1.5-1.5l0,0c0.83,0,1.5,0.67,1.5,1.5l0,0c0,0.83-0.67,1.5-1.5,1.5l0,0C888.149,15.5,887.469,14.83,887.469,14z
			 M874.509,14c0-0.83,0.67-1.5,1.5-1.5l0,0c0.82,0,1.5,0.67,1.5,1.5l0,0c0,0.83-0.68,1.5-1.5,1.5l0,0
			C875.179,15.5,874.509,14.83,874.509,14z M861.54,14c0-0.83,0.66-1.5,1.5-1.5l0,0c0.819,0,1.49,0.67,1.49,1.5l0,0
			c0,0.83-0.671,1.5-1.49,1.5l0,0C862.2,15.5,861.54,14.83,861.54,14z M848.559,14c0-0.83,0.681-1.5,1.5-1.5l0,0
			c0.83,0,1.5,0.67,1.5,1.5l0,0c0,0.83-0.67,1.5-1.5,1.5l0,0C849.24,15.5,848.559,14.83,848.559,14z M835.589,14
			c0-0.83,0.68-1.5,1.5-1.5l0,0c0.83,0,1.5,0.67,1.5,1.5l0,0c0,0.83-0.67,1.5-1.5,1.5l0,0C836.269,15.5,835.589,14.83,835.589,14z
			 M822.62,14c0-0.83,0.67-1.5,1.5-1.5l0,0c0.83,0,1.5,0.67,1.5,1.5l0,0c0,0.83-0.67,1.5-1.5,1.5l0,0
			C823.29,15.5,822.62,14.83,822.62,14z M809.649,14c0-0.83,0.67-1.5,1.5-1.5l0,0c0.83,0,1.5,0.67,1.5,1.5l0,0
			c0,0.83-0.67,1.5-1.5,1.5l0,0C810.319,15.5,809.649,14.83,809.649,14z M796.679,14c0-0.83,0.67-1.5,1.5-1.5l0,0
			c0.83,0,1.5,0.67,1.5,1.5l0,0c0,0.83-0.67,1.5-1.5,1.5l0,0C797.349,15.5,796.679,14.83,796.679,14z M783.709,14
			c0-0.83,0.67-1.5,1.5-1.5l0,0c0.83,0,1.5,0.67,1.5,1.5l0,0c0,0.83-0.67,1.5-1.5,1.5l0,0C784.379,15.5,783.709,14.83,783.709,14z
			 M770.74,14c0-0.83,0.67-1.5,1.5-1.5l0,0c0.829,0,1.5,0.67,1.5,1.5l0,0c0,0.83-0.671,1.5-1.5,1.5l0,0
			C771.41,15.5,770.74,14.83,770.74,14z M757.769,14c0-0.83,0.67-1.5,1.5-1.5l0,0c0.83,0,1.5,0.67,1.5,1.5l0,0
			c0,0.83-0.67,1.5-1.5,1.5l0,0C758.439,15.5,757.769,14.83,757.769,14z M744.799,14c0-0.83,0.67-1.5,1.5-1.5l0,0
			c0.83,0,1.5,0.67,1.5,1.5l0,0c0,0.83-0.67,1.5-1.5,1.5l0,0C745.469,15.5,744.799,14.83,744.799,14z M731.83,14
			c0-0.83,0.67-1.5,1.5-1.5l0,0c0.83,0,1.5,0.67,1.5,1.5l0,0c0,0.83-0.67,1.5-1.5,1.5l0,0C732.5,15.5,731.83,14.83,731.83,14z
			 M718.859,14c0-0.83,0.671-1.5,1.5-1.5l0,0c0.83,0,1.5,0.67,1.5,1.5l0,0c0,0.83-0.67,1.5-1.5,1.5l0,0
			C719.53,15.5,718.859,14.83,718.859,14z M705.889,14c0-0.83,0.67-1.5,1.5-1.5l0,0c0.83,0,1.5,0.67,1.5,1.5l0,0
			c0,0.83-0.67,1.5-1.5,1.5l0,0C706.559,15.5,705.889,14.83,705.889,14z M692.919,14c0-0.83,0.67-1.5,1.5-1.5l0,0
			c0.83,0,1.5,0.67,1.5,1.5l0,0c0,0.83-0.67,1.5-1.5,1.5l0,0C693.589,15.5,692.919,14.83,692.919,14z M679.95,14
			c0-0.83,0.67-1.5,1.5-1.5l0,0c0.83,0,1.5,0.67,1.5,1.5l0,0c0,0.83-0.67,1.5-1.5,1.5l0,0C680.62,15.5,679.95,14.83,679.95,14z
			 M666.979,14c0-0.83,0.67-1.5,1.5-1.5l0,0c0.83,0,1.5,0.67,1.5,1.5l0,0c0,0.83-0.67,1.5-1.5,1.5l0,0
			C667.649,15.5,666.979,14.83,666.979,14z M654.009,14c0-0.83,0.67-1.5,1.5-1.5l0,0c0.83,0,1.5,0.67,1.5,1.5l0,0
			c0,0.83-0.67,1.5-1.5,1.5l0,0C654.679,15.5,654.009,14.83,654.009,14z M641.04,14c0-0.83,0.67-1.5,1.5-1.5l0,0
			c0.83,0,1.5,0.67,1.5,1.5l0,0c0,0.83-0.67,1.5-1.5,1.5l0,0C641.709,15.5,641.04,14.83,641.04,14z M628.069,14
			c0-0.83,0.671-1.5,1.5-1.5l0,0c0.83,0,1.5,0.67,1.5,1.5l0,0c0,0.83-0.67,1.5-1.5,1.5l0,0C628.74,15.5,628.069,14.83,628.069,14z
			 M615.099,14c0-0.83,0.67-1.5,1.5-1.5l0,0c0.83,0,1.5,0.67,1.5,1.5l0,0c0,0.83-0.67,1.5-1.5,1.5l0,0
			C615.769,15.5,615.099,14.83,615.099,14z M602.129,14c0-0.83,0.67-1.5,1.5-1.5l0,0c0.83,0,1.5,0.67,1.5,1.5l0,0
			c0,0.83-0.67,1.5-1.5,1.5l0,0C602.799,15.5,602.129,14.83,602.129,14z M589.16,14c0-0.83,0.67-1.5,1.5-1.5l0,0
			c0.83,0,1.5,0.67,1.5,1.5l0,0c0,0.83-0.67,1.5-1.5,1.5l0,0C589.83,15.5,589.16,14.83,589.16,14z M576.189,14
			c0-0.83,0.67-1.5,1.5-1.5l0,0c0.83,0,1.5,0.67,1.5,1.5l0,0c0,0.83-0.67,1.5-1.5,1.5l0,0C576.859,15.5,576.189,14.83,576.189,14z
			 M563.219,14c0-0.83,0.67-1.5,1.5-1.5l0,0c0.83,0,1.5,0.67,1.5,1.5l0,0c0,0.83-0.67,1.5-1.5,1.5l0,0
			C563.889,15.5,563.219,14.83,563.219,14z M550.25,14c0-0.83,0.67-1.5,1.5-1.5l0,0c0.83,0,1.5,0.67,1.5,1.5l0,0
			c0,0.83-0.67,1.5-1.5,1.5l0,0C550.919,15.5,550.25,14.83,550.25,14z M537.28,14c0-0.83,0.67-1.5,1.5-1.5l0,0
			c0.829,0,1.5,0.67,1.5,1.5l0,0c0,0.83-0.671,1.5-1.5,1.5l0,0C537.95,15.5,537.28,14.83,537.28,14z M524.309,14
			c0-0.83,0.67-1.5,1.5-1.5l0,0c0.83,0,1.5,0.67,1.5,1.5l0,0c0,0.83-0.67,1.5-1.5,1.5l0,0C524.979,15.5,524.309,14.83,524.309,14z
			 M511.339,14c0-0.83,0.67-1.5,1.5-1.5l0,0c0.83,0,1.5,0.67,1.5,1.5l0,0c0,0.83-0.67,1.5-1.5,1.5l0,0
			C512.009,15.5,511.339,14.83,511.339,14z M498.37,14c0-0.83,0.67-1.5,1.5-1.5l0,0c0.83,0,1.5,0.67,1.5,1.5l0,0
			c0,0.83-0.67,1.5-1.5,1.5l0,0C499.04,15.5,498.37,14.83,498.37,14z M485.399,14c0-0.83,0.67-1.5,1.5-1.5l0,0
			c0.83,0,1.5,0.67,1.5,1.5l0,0c0,0.83-0.67,1.5-1.5,1.5l0,0C486.069,15.5,485.399,14.83,485.399,14z M472.429,14
			c0-0.83,0.67-1.5,1.5-1.5l0,0c0.83,0,1.5,0.67,1.5,1.5l0,0c0,0.83-0.67,1.5-1.5,1.5l0,0C473.099,15.5,472.429,14.83,472.429,14z
			 M459.459,14c0-0.83,0.67-1.5,1.5-1.5l0,0c0.83,0,1.5,0.67,1.5,1.5l0,0c0,0.83-0.67,1.5-1.5,1.5l0,0
			C460.129,15.5,459.459,14.83,459.459,14z M446.489,14c0-0.83,0.67-1.5,1.5-1.5l0,0c0.82,0,1.5,0.67,1.5,1.5l0,0
			c0,0.83-0.68,1.5-1.5,1.5l0,0C447.159,15.5,446.489,14.83,446.489,14z M433.52,14c0-0.83,0.67-1.5,1.5-1.5l0,0
			c0.83,0,1.5,0.67,1.5,1.5l0,0c0,0.83-0.67,1.5-1.5,1.5l0,0C434.189,15.5,433.52,14.83,433.52,14z M420.549,14
			c0-0.83,0.67-1.5,1.5-1.5l0,0c0.83,0,1.5,0.67,1.5,1.5l0,0c0,0.83-0.67,1.5-1.5,1.5l0,0C421.219,15.5,420.549,14.83,420.549,14z
			 M407.579,14c0-0.83,0.67-1.5,1.5-1.5l0,0c0.83,0,1.5,0.67,1.5,1.5l0,0c0,0.83-0.67,1.5-1.5,1.5l0,0
			C408.25,15.5,407.579,14.83,407.579,14z M394.609,14c0-0.83,0.67-1.5,1.5-1.5l0,0c0.83,0,1.5,0.67,1.5,1.5l0,0
			c0,0.83-0.67,1.5-1.5,1.5l0,0C395.279,15.5,394.609,14.83,394.609,14z M381.639,14c0-0.83,0.67-1.5,1.5-1.5l0,0
			c0.82,0,1.5,0.67,1.5,1.5l0,0c0,0.83-0.68,1.5-1.5,1.5l0,0C382.31,15.5,381.639,14.83,381.639,14z M368.669,14
			c0-0.83,0.67-1.5,1.5-1.5l0,0c0.83,0,1.5,0.67,1.5,1.5l0,0c0,0.83-0.67,1.5-1.5,1.5l0,0C369.339,15.5,368.669,14.83,368.669,14z
			 M355.699,14c0-0.83,0.67-1.5,1.5-1.5l0,0c0.83,0,1.5,0.67,1.5,1.5l0,0c0,0.83-0.67,1.5-1.5,1.5l0,0
			C356.369,15.5,355.699,14.83,355.699,14z M342.729,14c0-0.83,0.67-1.5,1.5-1.5l0,0c0.82,0,1.5,0.67,1.5,1.5l0,0
			c0,0.83-0.68,1.5-1.5,1.5l0,0C343.399,15.5,342.729,14.83,342.729,14z M329.759,14c0-0.83,0.67-1.5,1.5-1.5l0,0
			c0.82,0,1.5,0.67,1.5,1.5l0,0c0,0.83-0.68,1.5-1.5,1.5l0,0C330.429,15.5,329.759,14.83,329.759,14z M316.79,14
			c0-0.83,0.67-1.5,1.49-1.5l0,0c0.83,0,1.51,0.67,1.51,1.5l0,0c0,0.83-0.68,1.5-1.51,1.5l0,0C317.459,15.5,316.79,14.83,316.79,14z
			 M303.819,14c0-0.83,0.67-1.5,1.5-1.5l0,0c0.82,0,1.5,0.67,1.5,1.5l0,0c0,0.83-0.68,1.5-1.5,1.5l0,0
			C304.489,15.5,303.819,14.83,303.819,14z M290.849,14c0-0.83,0.67-1.5,1.5-1.5l0,0c0.82,0,1.5,0.67,1.5,1.5l0,0
			c0,0.83-0.68,1.5-1.5,1.5l0,0C291.52,15.5,290.849,14.83,290.849,14z M277.879,14c0-0.83,0.67-1.5,1.5-1.5l0,0
			c0.82,0,1.5,0.67,1.5,1.5l0,0c0,0.83-0.68,1.5-1.5,1.5l0,0C278.549,15.5,277.879,14.83,277.879,14z M264.899,14
			c0-0.83,0.68-1.5,1.5-1.5l0,0c0.83,0,1.5,0.67,1.5,1.5l0,0c0,0.83-0.67,1.5-1.5,1.5l0,0C265.579,15.5,264.899,14.83,264.899,14z
			 M251.929,14c0-0.83,0.68-1.5,1.5-1.5l0,0c0.83,0,1.5,0.67,1.5,1.5l0,0c0,0.83-0.67,1.5-1.5,1.5l0,0
			C252.609,15.5,251.929,14.83,251.929,14z M238.969,14c0-0.83,0.67-1.5,1.5-1.5l0,0c0.82,0,1.5,0.67,1.5,1.5l0,0
			c0,0.83-0.68,1.5-1.5,1.5l0,0C239.639,15.5,238.969,14.83,238.969,14z M225.989,14c0-0.83,0.68-1.5,1.51-1.5l0,0
			c0.82,0,1.5,0.67,1.5,1.5l0,0c0,0.83-0.68,1.5-1.5,1.5l0,0C226.669,15.5,225.989,14.83,225.989,14z M213.02,14
			c0-0.83,0.68-1.5,1.5-1.5l0,0c0.83,0,1.5,0.67,1.5,1.5l0,0c0,0.83-0.67,1.5-1.5,1.5l0,0C213.699,15.5,213.02,14.83,213.02,14z
			 M200.049,14c0-0.83,0.68-1.5,1.5-1.5l0,0c0.83,0,1.5,0.67,1.5,1.5l0,0c0,0.83-0.67,1.5-1.5,1.5l0,0
			C200.729,15.5,200.049,14.83,200.049,14z M187.079,14c0-0.83,0.67-1.5,1.5-1.5l0,0c0.83,0,1.5,0.67,1.5,1.5l0,0
			c0,0.83-0.67,1.5-1.5,1.5l0,0C187.75,15.5,187.079,14.83,187.079,14z M174.109,14c0-0.83,0.67-1.5,1.5-1.5l0,0
			c0.83,0,1.5,0.67,1.5,1.5l0,0c0,0.83-0.67,1.5-1.5,1.5l0,0C174.779,15.5,174.109,14.83,174.109,14z M161.139,14
			c0-0.83,0.68-1.5,1.5-1.5l0,0c0.83,0,1.5,0.67,1.5,1.5l0,0c0,0.83-0.67,1.5-1.5,1.5l0,0C161.819,15.5,161.139,14.83,161.139,14z
			 M148.169,14c0-0.83,0.67-1.5,1.5-1.5l0,0c0.83,0,1.5,0.67,1.5,1.5l0,0c0,0.83-0.67,1.5-1.5,1.5l0,0
			C148.839,15.5,148.169,14.83,148.169,14z M135.199,14c0-0.83,0.67-1.5,1.5-1.5l0,0c0.83,0,1.5,0.67,1.5,1.5l0,0
			c0,0.83-0.67,1.5-1.5,1.5l0,0C135.869,15.5,135.199,14.83,135.199,14z M122.229,14c0-0.83,0.67-1.5,1.5-1.5l0,0
			c0.83,0,1.5,0.67,1.5,1.5l0,0c0,0.83-0.67,1.5-1.5,1.5l0,0C122.899,15.5,122.229,14.83,122.229,14z M109.259,14
			c0-0.83,0.67-1.5,1.5-1.5l0,0c0.83,0,1.5,0.67,1.5,1.5l0,0c0,0.83-0.67,1.5-1.5,1.5l0,0C109.929,15.5,109.259,14.83,109.259,14z
			 M96.29,14c0-0.83,0.67-1.5,1.5-1.5l0,0c0.83,0,1.5,0.67,1.5,1.5l0,0c0,0.83-0.67,1.5-1.5,1.5l0,0
			C96.959,15.5,96.29,14.83,96.29,14z M83.319,14c0-0.83,0.67-1.5,1.5-1.5l0,0c0.83,0,1.5,0.67,1.5,1.5l0,0c0,0.83-0.67,1.5-1.5,1.5
			l0,0C83.989,15.5,83.319,14.83,83.319,14z M70.349,14c0-0.83,0.67-1.5,1.5-1.5l0,0c0.83,0,1.5,0.67,1.5,1.5l0,0
			c0,0.83-0.67,1.5-1.5,1.5l0,0C71.02,15.5,70.349,14.83,70.349,14z M57.379,14c0-0.83,0.67-1.5,1.5-1.5l0,0
			c0.83,0,1.5,0.67,1.5,1.5l0,0c0,0.83-0.67,1.5-1.5,1.5l0,0C58.049,15.5,57.379,14.83,57.379,14z M44.409,14
			c0-0.83,0.67-1.5,1.5-1.5l0,0c0.83,0,1.5,0.67,1.5,1.5l0,0c0,0.83-0.67,1.5-1.5,1.5l0,0C45.079,15.5,44.409,14.83,44.409,14z
			 M31.439,14c0-0.83,0.67-1.5,1.5-1.5l0,0c0.83,0,1.5,0.67,1.5,1.5l0,0c0,0.83-0.67,1.5-1.5,1.5l0,0
			C32.109,15.5,31.439,14.83,31.439,14z M18.469,14c0-0.83,0.67-1.5,1.5-1.5l0,0c0.83,0,1.5,0.67,1.5,1.5l0,0
			c0,0.83-0.67,1.5-1.5,1.5l0,0C19.139,15.5,18.469,14.83,18.469,14z"/>
	</g>
	<g>
		<path d="M1096.5,15.5c-0.4,0-0.78-0.16-1.061-0.44C1095.16,14.78,1095,14.399,1095,14c0-0.39,0.16-0.78,0.439-1.06
			c0.561-0.56,1.561-0.56,2.12,0c0.28,0.28,0.44,0.67,0.44,1.06c0,0.39-0.16,0.78-0.44,1.06
			C1097.28,15.34,1096.899,15.5,1096.5,15.5z"/>
	</g>
</g>
<g>
	<g>
		<path d="M7,25c-0.39,0-0.78-0.16-1.06-0.44C5.659,24.28,5.5,23.89,5.5,23.5c0-0.391,0.16-0.78,0.44-1.061
			c0.56-0.56,1.56-0.56,2.12,0c0.28,0.28,0.44,0.67,0.44,1.061c0,0.39-0.16,0.78-0.44,1.06C7.779,24.84,7.399,25,7,25z"/>
	</g>
	<g>
		<path d="M1082.03,23.5c0-0.83,0.67-1.5,1.5-1.5l0,0c0.829,0,1.5,0.67,1.5,1.5l0,0c0,0.83-0.671,1.5-1.5,1.5l0,0
			C1082.7,25,1082.03,24.33,1082.03,23.5z M1069.059,23.5c0-0.83,0.67-1.5,1.5-1.5l0,0c0.83,0,1.5,0.67,1.5,1.5l0,0
			c0,0.83-0.67,1.5-1.5,1.5l0,0C1069.729,25,1069.059,24.33,1069.059,23.5z M1056.089,23.5c0-0.83,0.67-1.5,1.5-1.5l0,0
			c0.83,0,1.5,0.67,1.5,1.5l0,0c0,0.83-0.67,1.5-1.5,1.5l0,0C1056.759,25,1056.089,24.33,1056.089,23.5z M1043.12,23.5
			c0-0.83,0.67-1.5,1.5-1.5l0,0c0.83,0,1.5,0.67,1.5,1.5l0,0c0,0.83-0.67,1.5-1.5,1.5l0,0C1043.79,25,1043.12,24.33,1043.12,23.5z
			 M1030.149,23.5c0-0.83,0.67-1.5,1.5-1.5l0,0c0.83,0,1.5,0.67,1.5,1.5l0,0c0,0.83-0.67,1.5-1.5,1.5l0,0
			C1030.819,25,1030.149,24.33,1030.149,23.5z M1017.179,23.5c0-0.83,0.67-1.5,1.5-1.5l0,0c0.83,0,1.5,0.67,1.5,1.5l0,0
			c0,0.83-0.67,1.5-1.5,1.5l0,0C1017.849,25,1017.179,24.33,1017.179,23.5z M1004.209,23.5c0-0.83,0.67-1.5,1.5-1.5l0,0
			c0.83,0,1.5,0.67,1.5,1.5l0,0c0,0.83-0.67,1.5-1.5,1.5l0,0C1004.879,25,1004.209,24.33,1004.209,23.5z M991.24,23.5
			c0-0.83,0.67-1.5,1.5-1.5l0,0c0.829,0,1.5,0.67,1.5,1.5l0,0c0,0.83-0.671,1.5-1.5,1.5l0,0C991.91,25,991.24,24.33,991.24,23.5z
			 M978.269,23.5c0-0.83,0.67-1.5,1.5-1.5l0,0c0.83,0,1.5,0.67,1.5,1.5l0,0c0,0.83-0.67,1.5-1.5,1.5l0,0
			C978.939,25,978.269,24.33,978.269,23.5z M965.299,23.5c0-0.83,0.67-1.5,1.5-1.5l0,0c0.82,0,1.5,0.67,1.5,1.5l0,0
			c0,0.83-0.68,1.5-1.5,1.5l0,0C965.969,25,965.299,24.33,965.299,23.5z M952.319,23.5c0-0.83,0.681-1.5,1.511-1.5l0,0
			c0.819,0,1.5,0.67,1.5,1.5l0,0c0,0.83-0.681,1.5-1.5,1.5l0,0C953,25,952.319,24.33,952.319,23.5z M939.359,23.5
			c0-0.83,0.671-1.5,1.5-1.5l0,0c0.83,0,1.5,0.67,1.5,1.5l0,0c0,0.83-0.67,1.5-1.5,1.5l0,0C940.03,25,939.359,24.33,939.359,23.5z
			 M926.389,23.5c0-0.83,0.67-1.5,1.5-1.5l0,0c0.82,0,1.5,0.67,1.5,1.5l0,0c0,0.83-0.68,1.5-1.5,1.5l0,0
			C927.059,25,926.389,24.33,926.389,23.5z M913.419,23.5c0-0.83,0.66-1.5,1.5-1.5l0,0c0.82,0,1.5,0.67,1.5,1.5l0,0
			c0,0.83-0.68,1.5-1.5,1.5l0,0C914.08,25,913.419,24.33,913.419,23.5z M900.439,23.5c0-0.83,0.681-1.5,1.5-1.5l0,0
			c0.83,0,1.5,0.67,1.5,1.5l0,0c0,0.83-0.67,1.5-1.5,1.5l0,0C901.12,25,900.439,24.33,900.439,23.5z M887.469,23.5
			c0-0.83,0.68-1.5,1.5-1.5l0,0c0.83,0,1.5,0.67,1.5,1.5l0,0c0,0.83-0.67,1.5-1.5,1.5l0,0C888.149,25,887.469,24.33,887.469,23.5z
			 M874.509,23.5c0-0.83,0.67-1.5,1.5-1.5l0,0c0.82,0,1.5,0.67,1.5,1.5l0,0c0,0.83-0.68,1.5-1.5,1.5l0,0
			C875.179,25,874.509,24.33,874.509,23.5z M861.54,23.5c0-0.83,0.66-1.5,1.5-1.5l0,0c0.819,0,1.49,0.67,1.49,1.5l0,0
			c0,0.83-0.671,1.5-1.49,1.5l0,0C862.2,25,861.54,24.33,861.54,23.5z M848.559,23.5c0-0.83,0.681-1.5,1.5-1.5l0,0
			c0.83,0,1.5,0.67,1.5,1.5l0,0c0,0.83-0.67,1.5-1.5,1.5l0,0C849.24,25,848.559,24.33,848.559,23.5z M835.589,23.5
			c0-0.83,0.68-1.5,1.5-1.5l0,0c0.83,0,1.5,0.67,1.5,1.5l0,0c0,0.83-0.67,1.5-1.5,1.5l0,0C836.269,25,835.589,24.33,835.589,23.5z
			 M822.62,23.5c0-0.83,0.67-1.5,1.5-1.5l0,0c0.83,0,1.5,0.67,1.5,1.5l0,0c0,0.83-0.67,1.5-1.5,1.5l0,0
			C823.29,25,822.62,24.33,822.62,23.5z M809.649,23.5c0-0.83,0.67-1.5,1.5-1.5l0,0c0.83,0,1.5,0.67,1.5,1.5l0,0
			c0,0.83-0.67,1.5-1.5,1.5l0,0C810.319,25,809.649,24.33,809.649,23.5z M796.679,23.5c0-0.83,0.67-1.5,1.5-1.5l0,0
			c0.83,0,1.5,0.67,1.5,1.5l0,0c0,0.83-0.67,1.5-1.5,1.5l0,0C797.349,25,796.679,24.33,796.679,23.5z M783.709,23.5
			c0-0.83,0.67-1.5,1.5-1.5l0,0c0.83,0,1.5,0.67,1.5,1.5l0,0c0,0.83-0.67,1.5-1.5,1.5l0,0C784.379,25,783.709,24.33,783.709,23.5z
			 M770.74,23.5c0-0.83,0.67-1.5,1.5-1.5l0,0c0.829,0,1.5,0.67,1.5,1.5l0,0c0,0.83-0.671,1.5-1.5,1.5l0,0
			C771.41,25,770.74,24.33,770.74,23.5z M757.769,23.5c0-0.83,0.67-1.5,1.5-1.5l0,0c0.83,0,1.5,0.67,1.5,1.5l0,0
			c0,0.83-0.67,1.5-1.5,1.5l0,0C758.439,25,757.769,24.33,757.769,23.5z M744.799,23.5c0-0.83,0.67-1.5,1.5-1.5l0,0
			c0.83,0,1.5,0.67,1.5,1.5l0,0c0,0.83-0.67,1.5-1.5,1.5l0,0C745.469,25,744.799,24.33,744.799,23.5z M731.83,23.5
			c0-0.83,0.67-1.5,1.5-1.5l0,0c0.83,0,1.5,0.67,1.5,1.5l0,0c0,0.83-0.67,1.5-1.5,1.5l0,0C732.5,25,731.83,24.33,731.83,23.5z
			 M718.859,23.5c0-0.83,0.671-1.5,1.5-1.5l0,0c0.83,0,1.5,0.67,1.5,1.5l0,0c0,0.83-0.67,1.5-1.5,1.5l0,0
			C719.53,25,718.859,24.33,718.859,23.5z M705.889,23.5c0-0.83,0.67-1.5,1.5-1.5l0,0c0.83,0,1.5,0.67,1.5,1.5l0,0
			c0,0.83-0.67,1.5-1.5,1.5l0,0C706.559,25,705.889,24.33,705.889,23.5z M692.919,23.5c0-0.83,0.67-1.5,1.5-1.5l0,0
			c0.83,0,1.5,0.67,1.5,1.5l0,0c0,0.83-0.67,1.5-1.5,1.5l0,0C693.589,25,692.919,24.33,692.919,23.5z M679.95,23.5
			c0-0.83,0.67-1.5,1.5-1.5l0,0c0.83,0,1.5,0.67,1.5,1.5l0,0c0,0.83-0.67,1.5-1.5,1.5l0,0C680.62,25,679.95,24.33,679.95,23.5z
			 M666.979,23.5c0-0.83,0.67-1.5,1.5-1.5l0,0c0.83,0,1.5,0.67,1.5,1.5l0,0c0,0.83-0.67,1.5-1.5,1.5l0,0
			C667.649,25,666.979,24.33,666.979,23.5z M654.009,23.5c0-0.83,0.67-1.5,1.5-1.5l0,0c0.83,0,1.5,0.67,1.5,1.5l0,0
			c0,0.83-0.67,1.5-1.5,1.5l0,0C654.679,25,654.009,24.33,654.009,23.5z M641.04,23.5c0-0.83,0.67-1.5,1.5-1.5l0,0
			c0.83,0,1.5,0.67,1.5,1.5l0,0c0,0.83-0.67,1.5-1.5,1.5l0,0C641.709,25,641.04,24.33,641.04,23.5z M628.069,23.5
			c0-0.83,0.671-1.5,1.5-1.5l0,0c0.83,0,1.5,0.67,1.5,1.5l0,0c0,0.83-0.67,1.5-1.5,1.5l0,0C628.74,25,628.069,24.33,628.069,23.5z
			 M615.099,23.5c0-0.83,0.67-1.5,1.5-1.5l0,0c0.83,0,1.5,0.67,1.5,1.5l0,0c0,0.83-0.67,1.5-1.5,1.5l0,0
			C615.769,25,615.099,24.33,615.099,23.5z M602.129,23.5c0-0.83,0.67-1.5,1.5-1.5l0,0c0.83,0,1.5,0.67,1.5,1.5l0,0
			c0,0.83-0.67,1.5-1.5,1.5l0,0C602.799,25,602.129,24.33,602.129,23.5z M589.16,23.5c0-0.83,0.67-1.5,1.5-1.5l0,0
			c0.83,0,1.5,0.67,1.5,1.5l0,0c0,0.83-0.67,1.5-1.5,1.5l0,0C589.83,25,589.16,24.33,589.16,23.5z M576.189,23.5
			c0-0.83,0.67-1.5,1.5-1.5l0,0c0.83,0,1.5,0.67,1.5,1.5l0,0c0,0.83-0.67,1.5-1.5,1.5l0,0C576.859,25,576.189,24.33,576.189,23.5z
			 M563.219,23.5c0-0.83,0.67-1.5,1.5-1.5l0,0c0.83,0,1.5,0.67,1.5,1.5l0,0c0,0.83-0.67,1.5-1.5,1.5l0,0
			C563.889,25,563.219,24.33,563.219,23.5z M550.25,23.5c0-0.83,0.67-1.5,1.5-1.5l0,0c0.83,0,1.5,0.67,1.5,1.5l0,0
			c0,0.83-0.67,1.5-1.5,1.5l0,0C550.919,25,550.25,24.33,550.25,23.5z M537.28,23.5c0-0.83,0.67-1.5,1.5-1.5l0,0
			c0.829,0,1.5,0.67,1.5,1.5l0,0c0,0.83-0.671,1.5-1.5,1.5l0,0C537.95,25,537.28,24.33,537.28,23.5z M524.309,23.5
			c0-0.83,0.67-1.5,1.5-1.5l0,0c0.83,0,1.5,0.67,1.5,1.5l0,0c0,0.83-0.67,1.5-1.5,1.5l0,0C524.979,25,524.309,24.33,524.309,23.5z
			 M511.339,23.5c0-0.83,0.67-1.5,1.5-1.5l0,0c0.83,0,1.5,0.67,1.5,1.5l0,0c0,0.83-0.67,1.5-1.5,1.5l0,0
			C512.009,25,511.339,24.33,511.339,23.5z M498.37,23.5c0-0.83,0.67-1.5,1.5-1.5l0,0c0.83,0,1.5,0.67,1.5,1.5l0,0
			c0,0.83-0.67,1.5-1.5,1.5l0,0C499.04,25,498.37,24.33,498.37,23.5z M485.399,23.5c0-0.83,0.67-1.5,1.5-1.5l0,0
			c0.83,0,1.5,0.67,1.5,1.5l0,0c0,0.83-0.67,1.5-1.5,1.5l0,0C486.069,25,485.399,24.33,485.399,23.5z M472.429,23.5
			c0-0.83,0.67-1.5,1.5-1.5l0,0c0.83,0,1.5,0.67,1.5,1.5l0,0c0,0.83-0.67,1.5-1.5,1.5l0,0C473.099,25,472.429,24.33,472.429,23.5z
			 M459.459,23.5c0-0.83,0.67-1.5,1.5-1.5l0,0c0.83,0,1.5,0.67,1.5,1.5l0,0c0,0.83-0.67,1.5-1.5,1.5l0,0
			C460.129,25,459.459,24.33,459.459,23.5z M446.489,23.5c0-0.83,0.67-1.5,1.5-1.5l0,0c0.82,0,1.5,0.67,1.5,1.5l0,0
			c0,0.83-0.68,1.5-1.5,1.5l0,0C447.159,25,446.489,24.33,446.489,23.5z M433.52,23.5c0-0.83,0.67-1.5,1.5-1.5l0,0
			c0.83,0,1.5,0.67,1.5,1.5l0,0c0,0.83-0.67,1.5-1.5,1.5l0,0C434.189,25,433.52,24.33,433.52,23.5z M420.549,23.5
			c0-0.83,0.67-1.5,1.5-1.5l0,0c0.83,0,1.5,0.67,1.5,1.5l0,0c0,0.83-0.67,1.5-1.5,1.5l0,0C421.219,25,420.549,24.33,420.549,23.5z
			 M407.579,23.5c0-0.83,0.67-1.5,1.5-1.5l0,0c0.83,0,1.5,0.67,1.5,1.5l0,0c0,0.83-0.67,1.5-1.5,1.5l0,0
			C408.25,25,407.579,24.33,407.579,23.5z M394.609,23.5c0-0.83,0.67-1.5,1.5-1.5l0,0c0.83,0,1.5,0.67,1.5,1.5l0,0
			c0,0.83-0.67,1.5-1.5,1.5l0,0C395.279,25,394.609,24.33,394.609,23.5z M381.639,23.5c0-0.83,0.67-1.5,1.5-1.5l0,0
			c0.82,0,1.5,0.67,1.5,1.5l0,0c0,0.83-0.68,1.5-1.5,1.5l0,0C382.31,25,381.639,24.33,381.639,23.5z M368.669,23.5
			c0-0.83,0.67-1.5,1.5-1.5l0,0c0.83,0,1.5,0.67,1.5,1.5l0,0c0,0.83-0.67,1.5-1.5,1.5l0,0C369.339,25,368.669,24.33,368.669,23.5z
			 M355.699,23.5c0-0.83,0.67-1.5,1.5-1.5l0,0c0.83,0,1.5,0.67,1.5,1.5l0,0c0,0.83-0.67,1.5-1.5,1.5l0,0
			C356.369,25,355.699,24.33,355.699,23.5z M342.729,23.5c0-0.83,0.67-1.5,1.5-1.5l0,0c0.82,0,1.5,0.67,1.5,1.5l0,0
			c0,0.83-0.68,1.5-1.5,1.5l0,0C343.399,25,342.729,24.33,342.729,23.5z M329.759,23.5c0-0.83,0.67-1.5,1.5-1.5l0,0
			c0.82,0,1.5,0.67,1.5,1.5l0,0c0,0.83-0.68,1.5-1.5,1.5l0,0C330.429,25,329.759,24.33,329.759,23.5z M316.79,23.5
			c0-0.83,0.67-1.5,1.49-1.5l0,0c0.83,0,1.51,0.67,1.51,1.5l0,0c0,0.83-0.68,1.5-1.51,1.5l0,0C317.459,25,316.79,24.33,316.79,23.5z
			 M303.819,23.5c0-0.83,0.67-1.5,1.5-1.5l0,0c0.82,0,1.5,0.67,1.5,1.5l0,0c0,0.83-0.68,1.5-1.5,1.5l0,0
			C304.489,25,303.819,24.33,303.819,23.5z M290.849,23.5c0-0.83,0.67-1.5,1.5-1.5l0,0c0.82,0,1.5,0.67,1.5,1.5l0,0
			c0,0.83-0.68,1.5-1.5,1.5l0,0C291.52,25,290.849,24.33,290.849,23.5z M277.879,23.5c0-0.83,0.67-1.5,1.5-1.5l0,0
			c0.82,0,1.5,0.67,1.5,1.5l0,0c0,0.83-0.68,1.5-1.5,1.5l0,0C278.549,25,277.879,24.33,277.879,23.5z M264.899,23.5
			c0-0.83,0.68-1.5,1.5-1.5l0,0c0.83,0,1.5,0.67,1.5,1.5l0,0c0,0.83-0.67,1.5-1.5,1.5l0,0C265.579,25,264.899,24.33,264.899,23.5z
			 M251.929,23.5c0-0.83,0.68-1.5,1.5-1.5l0,0c0.83,0,1.5,0.67,1.5,1.5l0,0c0,0.83-0.67,1.5-1.5,1.5l0,0
			C252.609,25,251.929,24.33,251.929,23.5z M238.969,23.5c0-0.83,0.67-1.5,1.5-1.5l0,0c0.82,0,1.5,0.67,1.5,1.5l0,0
			c0,0.83-0.68,1.5-1.5,1.5l0,0C239.639,25,238.969,24.33,238.969,23.5z M225.989,23.5c0-0.83,0.68-1.5,1.51-1.5l0,0
			c0.82,0,1.5,0.67,1.5,1.5l0,0c0,0.83-0.68,1.5-1.5,1.5l0,0C226.669,25,225.989,24.33,225.989,23.5z M213.02,23.5
			c0-0.83,0.68-1.5,1.5-1.5l0,0c0.83,0,1.5,0.67,1.5,1.5l0,0c0,0.83-0.67,1.5-1.5,1.5l0,0C213.699,25,213.02,24.33,213.02,23.5z
			 M200.049,23.5c0-0.83,0.68-1.5,1.5-1.5l0,0c0.83,0,1.5,0.67,1.5,1.5l0,0c0,0.83-0.67,1.5-1.5,1.5l0,0
			C200.729,25,200.049,24.33,200.049,23.5z M187.079,23.5c0-0.83,0.67-1.5,1.5-1.5l0,0c0.83,0,1.5,0.67,1.5,1.5l0,0
			c0,0.83-0.67,1.5-1.5,1.5l0,0C187.75,25,187.079,24.33,187.079,23.5z M174.109,23.5c0-0.83,0.67-1.5,1.5-1.5l0,0
			c0.83,0,1.5,0.67,1.5,1.5l0,0c0,0.83-0.67,1.5-1.5,1.5l0,0C174.779,25,174.109,24.33,174.109,23.5z M161.139,23.5
			c0-0.83,0.68-1.5,1.5-1.5l0,0c0.83,0,1.5,0.67,1.5,1.5l0,0c0,0.83-0.67,1.5-1.5,1.5l0,0C161.819,25,161.139,24.33,161.139,23.5z
			 M148.169,23.5c0-0.83,0.67-1.5,1.5-1.5l0,0c0.83,0,1.5,0.67,1.5,1.5l0,0c0,0.83-0.67,1.5-1.5,1.5l0,0
			C148.839,25,148.169,24.33,148.169,23.5z M135.199,23.5c0-0.83,0.67-1.5,1.5-1.5l0,0c0.83,0,1.5,0.67,1.5,1.5l0,0
			c0,0.83-0.67,1.5-1.5,1.5l0,0C135.869,25,135.199,24.33,135.199,23.5z M122.229,23.5c0-0.83,0.67-1.5,1.5-1.5l0,0
			c0.83,0,1.5,0.67,1.5,1.5l0,0c0,0.83-0.67,1.5-1.5,1.5l0,0C122.899,25,122.229,24.33,122.229,23.5z M109.259,23.5
			c0-0.83,0.67-1.5,1.5-1.5l0,0c0.83,0,1.5,0.67,1.5,1.5l0,0c0,0.83-0.67,1.5-1.5,1.5l0,0C109.929,25,109.259,24.33,109.259,23.5z
			 M96.29,23.5c0-0.83,0.67-1.5,1.5-1.5l0,0c0.83,0,1.5,0.67,1.5,1.5l0,0c0,0.83-0.67,1.5-1.5,1.5l0,0
			C96.959,25,96.29,24.33,96.29,23.5z M83.319,23.5c0-0.83,0.67-1.5,1.5-1.5l0,0c0.83,0,1.5,0.67,1.5,1.5l0,0
			c0,0.83-0.67,1.5-1.5,1.5l0,0C83.989,25,83.319,24.33,83.319,23.5z M70.349,23.5c0-0.83,0.67-1.5,1.5-1.5l0,0
			c0.83,0,1.5,0.67,1.5,1.5l0,0c0,0.83-0.67,1.5-1.5,1.5l0,0C71.02,25,70.349,24.33,70.349,23.5z M57.379,23.5
			c0-0.83,0.67-1.5,1.5-1.5l0,0c0.83,0,1.5,0.67,1.5,1.5l0,0c0,0.83-0.67,1.5-1.5,1.5l0,0C58.049,25,57.379,24.33,57.379,23.5z
			 M44.409,23.5c0-0.83,0.67-1.5,1.5-1.5l0,0c0.83,0,1.5,0.67,1.5,1.5l0,0c0,0.83-0.67,1.5-1.5,1.5l0,0
			C45.079,25,44.409,24.33,44.409,23.5z M31.439,23.5c0-0.83,0.67-1.5,1.5-1.5l0,0c0.83,0,1.5,0.67,1.5,1.5l0,0
			c0,0.83-0.67,1.5-1.5,1.5l0,0C32.109,25,31.439,24.33,31.439,23.5z M18.469,23.5c0-0.83,0.67-1.5,1.5-1.5l0,0
			c0.83,0,1.5,0.67,1.5,1.5l0,0c0,0.83-0.67,1.5-1.5,1.5l0,0C19.139,25,18.469,24.33,18.469,23.5z"/>
	</g>
	<g>
		<path d="M1096.5,25c-0.391,0-0.78-0.16-1.061-0.44c-0.279-0.279-0.439-0.66-0.439-1.06c0-0.4,0.16-0.78,0.439-1.061
			c0.561-0.56,1.561-0.56,2.12,0c0.28,0.28,0.44,0.66,0.44,1.061c0,0.39-0.16,0.78-0.44,1.06C1097.28,24.84,1096.889,25,1096.5,25z"
			/>
	</g>
</g>
</svg>
