<?xml version="1.0" encoding="iso-8859-1"?>
<!-- Generator: Adobe Illustrator 16.0.0, SVG Export Plug-In . SVG Version: 6.00 Build 0)  -->
<!DOCTYPE svg PUBLIC "-//W3C//DTD SVG 1.1//EN" "http://www.w3.org/Graphics/SVG/1.1/DTD/svg11.dtd">
<svg version="1.1" id="Layer_1" xmlns="http://www.w3.org/2000/svg" xmlns:xlink="http://www.w3.org/1999/xlink" x="0px" y="0px"
	 width="876px" height="613px" viewBox="0 0 876 613" style="enable-background:new 0 0 876 613;" xml:space="preserve">
<g>
	
		<circle style="fill:none;stroke:#FFFFFF;stroke-width:3;stroke-linecap:round;stroke-linejoin:round;stroke-dasharray:0,5.9769;" cx="496.708" cy="509.961" r="78"/>
</g>
<g transform="translate(0.000000,565.000000) scale(0.100000,-0.100000)">
	<path style="fill:#385864;" d="M2552.08,3800.395l-1410-1410l1410-1410.005l1410-1410l1410,1410l1410,1410.005l-1410,1410
		l-1410,1410L2552.08,3800.395z"/>
</g>
<g>
	<path style="fill:#FFFFFF;" d="M272.092,262.357c0,3.708-1.854,6.128-3.656,7.312c3.862,1.339,6.746,4.017,6.746,9.27
		c0,7.055-5.562,11.021-12.565,11.021h-17.148v-37.852h14.625C267.611,252.109,272.092,255.972,272.092,262.357z M253.295,259.268
		v8.291h5.974c2.987,0,4.944-1.648,4.944-4.171c0-2.575-1.905-4.12-5.15-4.12H253.295z M253.295,273.79v9.012h8.343
		c3.399,0,5.562-1.545,5.562-4.48s-2.112-4.532-5.769-4.532H253.295z"/>
	<path style="fill:#FFFFFF;" d="M322.098,271.112c0,11.278-8.342,19.518-19.466,19.518c-11.175,0-19.415-8.24-19.415-19.518
		c0-11.381,8.24-19.672,19.415-19.672C313.756,251.439,322.098,259.731,322.098,271.112z M291.147,271.112
		c0,7.21,4.738,12.36,11.484,12.36s11.484-5.15,11.484-12.36c0-7.312-4.738-12.514-11.484-12.514S291.147,263.799,291.147,271.112z"
		/>
	<path style="fill:#FFFFFF;" d="M340.381,283.06H356.5v6.901h-23.998v-37.852h7.879V283.06z"/>
	<path style="fill:#FFFFFF;" d="M398.523,271.009c0,11.947-7.674,18.951-20.703,18.951h-12.05v-37.852h12.05
		C390.747,252.109,398.523,259.062,398.523,271.009z M373.649,259.319v23.483h3.914c8.549,0,12.978-4.326,12.978-11.742
		c0-7.467-4.48-11.742-12.978-11.742H373.649z"/>
	<path style="fill:#FFFFFF;" d="M458.521,271.009c0,11.947-7.674,18.951-20.703,18.951h-12.05v-37.852h12.05
		C450.744,252.109,458.521,259.062,458.521,271.009z M433.646,259.319v23.483h3.914c8.549,0,12.978-4.326,12.978-11.742
		c0-7.467-4.48-11.742-12.978-11.742H433.646z"/>
	<path style="fill:#FFFFFF;" d="M493.385,259.268h-16.582v8.188h14.368v6.644h-14.368v8.703h16.994v7.158h-24.873v-37.852h24.461
		V259.268z"/>
	<path style="fill:#FFFFFF;" d="M529.332,255.405l-4.068,6.489c-2.317-1.854-5.201-3.296-9.219-3.296
		c-3.347,0-5.407,1.339-5.407,4.12c0,2.163,1.442,3.245,7.107,4.326c9.784,2.06,12.874,5.613,12.874,11.433
		c0,7.262-5.407,12.154-14.316,12.154c-5.768,0-10.918-1.802-14.677-5.047l4.274-6.54c2.523,2.678,6.798,4.429,10.66,4.429
		c3.965,0,6.231-1.494,6.231-4.274c0-2.214-1.7-3.45-7.313-4.532c-9.784-2.111-12.72-6.025-12.72-11.587
		c0-6.798,5.201-11.639,13.338-11.639C521.504,251.439,526.19,252.984,529.332,255.405z"/>
	<path style="fill:#FFFFFF;" d="M548.593,289.96h-7.879v-37.852h7.879V289.96z"/>
	<path style="fill:#FFFFFF;" d="M592.161,257.104l-4.943,5.716c-2.009-2.369-4.893-4.223-8.755-4.223
		c-6.952,0-11.484,5.201-11.484,12.411c0,7.209,4.738,12.462,11.999,12.462c2.472,0,4.532-0.772,6.283-1.905v-6.128h-8.188v-6.747
		h16.016v16.737c-3.656,3.45-8.445,5.201-14.11,5.201c-11.689,0-19.93-8.394-19.93-19.621c0-11.175,8.034-19.57,19.415-19.57
		C584.437,251.439,588.505,253.345,592.161,257.104z"/>
	<path style="fill:#FFFFFF;" d="M635.421,290.63h-0.206l-22.351-21.784v21.114h-7.879v-38.521h0.206l22.35,21.784v-21.115h7.88
		V290.63z"/>
</g>
<g>
	<path style="fill:#FFFFFF;" d="M269.653,390.567h-16.421v8.108h14.228v6.578h-14.228v8.618h16.829v7.089h-24.631v-37.482h24.223
		V390.567z"/>
	<path style="fill:#FFFFFF;" d="M302.905,390.567h-15.656v8.618h13.004v6.629h-13.004v15.146h-7.802v-37.482h23.458V390.567z"/>
	<path style="fill:#FFFFFF;" d="M335.035,390.567h-15.656v8.618h13.004v6.629h-13.004v15.146h-7.802v-37.482h23.458V390.567z"/>
	<path style="fill:#FFFFFF;" d="M367.93,390.567h-16.421v8.108h14.228v6.578h-14.228v8.618h16.829v7.089h-24.631v-37.482h24.223
		V390.567z"/>
	<path style="fill:#FFFFFF;" d="M408.32,388.426l-4.896,5.66c-1.988-2.346-4.845-4.182-8.669-4.182
		c-6.884,0-11.372,5.15-11.372,12.29s4.488,12.341,11.372,12.341c3.876,0,6.782-1.887,8.771-4.283l4.844,5.66
		c-3.723,4.08-8.159,5.711-13.615,5.711c-11.27,0-19.225-8.312-19.225-19.429c0-11.065,7.955-19.378,19.225-19.378
		C400.671,382.816,404.7,384.703,408.32,388.426z"/>
	<path style="fill:#FFFFFF;" d="M445.55,390.312h-12.188v30.648h-7.751v-30.648h-12.137v-6.834h32.075V390.312z"/>
	<path style="fill:#FFFFFF;" d="M461.718,420.961h-7.802v-37.482h7.802V420.961z"/>
	<path style="fill:#FFFFFF;" d="M487.728,421.521h-0.204l-17.898-38.043h8.566l9.435,22.03l9.484-22.03h8.567L487.728,421.521z"/>
	<path style="fill:#FFFFFF;" d="M537.757,390.567h-16.421v8.108h14.228v6.578h-14.228v8.618h16.829v7.089h-24.631v-37.482h24.223
		V390.567z"/>
	<path style="fill:#FFFFFF;" d="M587.481,386.742l-4.028,6.426c-2.295-1.836-5.15-3.264-9.128-3.264
		c-3.314,0-5.354,1.326-5.354,4.08c0,2.142,1.428,3.213,7.037,4.283c9.689,2.04,12.749,5.559,12.749,11.32
		c0,7.191-5.354,12.035-14.177,12.035c-5.712,0-10.812-1.785-14.534-4.997l4.233-6.477c2.498,2.651,6.731,4.386,10.556,4.386
		c3.927,0,6.17-1.479,6.17-4.232c0-2.193-1.683-3.417-7.241-4.488c-9.688-2.09-12.596-5.966-12.596-11.473
		c0-6.732,5.15-11.525,13.208-11.525C579.73,382.816,584.371,384.346,587.481,386.742z"/>
	<path style="fill:#FFFFFF;" d="M626.699,390.312h-12.188v30.648h-7.751v-30.648h-12.137v-6.834h32.075V390.312z"/>
	<path style="fill:#FFFFFF;" d="M663.062,395.616c0,5.253-2.855,8.976-6.884,10.811l8.72,14.534h-9.077l-7.854-13.208h-5.15v13.208
		h-7.751v-37.482h14.687C656.942,383.479,663.062,387.865,663.062,395.616z M642.816,390.211v10.811h6.222
		c3.672,0,6.119-1.887,6.119-5.405c0-3.468-2.447-5.405-6.119-5.405H642.816z"/>
	<path style="fill:#FFFFFF;" d="M705.696,420.961h-8.566l-2.448-5.814h-14.381l-2.447,5.814h-8.567l18.104-38.145h0.204
		L705.696,420.961z M682.749,409.078h9.485l-4.743-11.219L682.749,409.078z"/>
	<path style="fill:#FFFFFF;" d="M735.787,390.312H723.6v30.648h-7.751v-30.648h-12.137v-6.834h32.075V390.312z"/>
	<path style="fill:#FFFFFF;" d="M768.376,390.567h-16.421v8.108h14.228v6.578h-14.228v8.618h16.829v7.089h-24.631v-37.482h24.223
		V390.567z"/>
	<path style="fill:#FFFFFF;" d="M808.768,388.426l-4.896,5.66c-1.988-2.346-4.845-4.182-8.669-4.182
		c-6.884,0-11.372,5.15-11.372,12.29s4.691,12.341,11.882,12.341c2.448,0,4.487-0.766,6.222-1.887v-6.068h-8.108v-6.681h15.859
		v16.573c-3.62,3.417-8.363,5.15-13.973,5.15c-11.575,0-19.734-8.312-19.734-19.429c0-11.065,7.955-19.378,19.225-19.378
		C801.118,382.816,805.147,384.703,808.768,388.426z"/>
	<path style="fill:#FFFFFF;" d="M838.145,405.611v15.35h-7.751v-15.197l-13.718-22.285h9.026l8.516,14.483l8.517-14.483h9.025
		L838.145,405.611z"/>
</g>
<g>
	<path style="fill:#FFFFFF;" d="M261.416,333.028h8.469v7.369h-8.469v8.469h-7.369v-8.469h-8.359v-7.369h8.359v-8.414h7.369V333.028
		z"/>
</g>
<g>
	<path style="fill:#0BB898;" d="M43.599,190.96l-1.711-4.758h-6.551l-1.676,4.758h-2.953l6.41-17.203h3.047l6.41,17.203H43.599z
		 M41.149,183.789l-1.605-4.664c-0.117-0.312-0.279-0.805-0.486-1.477s-0.35-1.164-0.428-1.477c-0.211,0.961-0.52,2.012-0.926,3.152
		l-1.547,4.465H41.149z"/>
	<path style="fill:#0BB898;" d="M60.005,191.195c-1.961,0-3.451-0.572-4.471-1.717s-1.529-2.787-1.529-4.928
		c0-2.18,0.533-3.855,1.6-5.027s2.607-1.758,4.623-1.758c1.367,0,2.598,0.254,3.691,0.762l-0.832,2.215
		c-1.164-0.453-2.125-0.68-2.883-0.68c-2.242,0-3.363,1.488-3.363,4.465c0,1.453,0.279,2.545,0.838,3.275s1.377,1.096,2.455,1.096
		c1.227,0,2.387-0.305,3.48-0.914v2.402c-0.492,0.289-1.018,0.496-1.576,0.621S60.802,191.195,60.005,191.195z"/>
	<path style="fill:#0BB898;" d="M73.235,177.765c0.555,0,1.012,0.039,1.371,0.117l-0.27,2.566c-0.391-0.094-0.797-0.141-1.219-0.141
		c-1.102,0-1.994,0.359-2.678,1.078s-1.025,1.652-1.025,2.801v6.773h-2.754V178h2.156l0.363,2.285h0.141
		c0.43-0.773,0.99-1.387,1.682-1.84S72.438,177.765,73.235,177.765z"/>
	<path style="fill:#0BB898;" d="M82.669,191.195c-2.016,0-3.592-0.588-4.729-1.764s-1.705-2.795-1.705-4.857
		c0-2.117,0.527-3.781,1.582-4.992s2.504-1.816,4.348-1.816c1.711,0,3.062,0.52,4.055,1.559s1.488,2.469,1.488,4.289v1.488h-8.637
		c0.039,1.258,0.379,2.225,1.02,2.9s1.543,1.014,2.707,1.014c0.766,0,1.479-0.072,2.139-0.217s1.369-0.385,2.127-0.721v2.238
		c-0.672,0.32-1.352,0.547-2.039,0.68S83.552,191.195,82.669,191.195z M82.165,179.851c-0.875,0-1.576,0.277-2.104,0.832
		s-0.842,1.363-0.943,2.426h5.883c-0.016-1.07-0.273-1.881-0.773-2.432S83.04,179.851,82.165,179.851z"/>
	<path style="fill:#0BB898;" d="M98.946,190.96l-0.551-1.805h-0.094c-0.625,0.789-1.254,1.326-1.887,1.611s-1.445,0.428-2.438,0.428
		c-1.273,0-2.268-0.344-2.982-1.031s-1.072-1.66-1.072-2.918c0-1.336,0.496-2.344,1.488-3.023s2.504-1.051,4.535-1.113l2.238-0.07
		v-0.691c0-0.828-0.193-1.447-0.58-1.857s-0.986-0.615-1.799-0.615c-0.664,0-1.301,0.098-1.91,0.293s-1.195,0.426-1.758,0.691
		l-0.891-1.969c0.703-0.367,1.473-0.646,2.309-0.838s1.625-0.287,2.367-0.287c1.648,0,2.893,0.359,3.732,1.078
		s1.26,1.848,1.26,3.387v8.73H98.946z M94.845,189.085c1,0,1.803-0.279,2.408-0.838s0.908-1.342,0.908-2.35v-1.125l-1.664,0.07
		c-1.297,0.047-2.24,0.264-2.83,0.65s-0.885,0.979-0.885,1.775c0,0.578,0.172,1.025,0.516,1.342S94.157,189.085,94.845,189.085z"/>
	<path style="fill:#0BB898;" d="M109.587,188.968c0.672,0,1.344-0.105,2.016-0.316v2.074c-0.305,0.133-0.697,0.244-1.178,0.334
		s-0.979,0.135-1.494,0.135c-2.609,0-3.914-1.375-3.914-4.125v-6.984h-1.77v-1.219l1.898-1.008l0.938-2.742h1.699V178h3.691v2.086
		h-3.691v6.938c0,0.664,0.166,1.154,0.498,1.471S109.048,188.968,109.587,188.968z"/>
	<path style="fill:#0BB898;" d="M114.028,174.566c0-0.492,0.135-0.871,0.404-1.137s0.654-0.398,1.154-0.398
		c0.484,0,0.861,0.133,1.131,0.398s0.404,0.645,0.404,1.137c0,0.469-0.135,0.838-0.404,1.107s-0.646,0.404-1.131,0.404
		c-0.5,0-0.885-0.135-1.154-0.404S114.028,175.035,114.028,174.566z M116.946,190.96h-2.754V178h2.754V190.96z"/>
	<path style="fill:#0BB898;" d="M123.837,190.96L118.915,178h2.906l2.637,7.535c0.453,1.266,0.727,2.289,0.82,3.07h0.094
		c0.07-0.562,0.344-1.586,0.82-3.07l2.637-7.535h2.93l-4.945,12.961H123.837z"/>
	<path style="fill:#0BB898;" d="M139.388,191.195c-2.016,0-3.592-0.588-4.729-1.764s-1.705-2.795-1.705-4.857
		c0-2.117,0.527-3.781,1.582-4.992s2.504-1.816,4.348-1.816c1.711,0,3.062,0.52,4.055,1.559s1.488,2.469,1.488,4.289v1.488h-8.637
		c0.039,1.258,0.379,2.225,1.02,2.9s1.543,1.014,2.707,1.014c0.766,0,1.479-0.072,2.139-0.217s1.369-0.385,2.127-0.721v2.238
		c-0.672,0.32-1.352,0.547-2.039,0.68S140.271,191.195,139.388,191.195z M138.884,179.851c-0.875,0-1.576,0.277-2.104,0.832
		s-0.842,1.363-0.943,2.426h5.883c-0.016-1.07-0.273-1.881-0.773-2.432S139.759,179.851,138.884,179.851z"/>
	<path style="fill:#0BB898;" d="M161.899,190.96l-0.551-1.805h-0.094c-0.625,0.789-1.254,1.326-1.887,1.611
		s-1.445,0.428-2.438,0.428c-1.273,0-2.268-0.344-2.982-1.031s-1.072-1.66-1.072-2.918c0-1.336,0.496-2.344,1.488-3.023
		s2.504-1.051,4.535-1.113l2.238-0.07v-0.691c0-0.828-0.193-1.447-0.58-1.857s-0.986-0.615-1.799-0.615
		c-0.664,0-1.301,0.098-1.91,0.293s-1.195,0.426-1.758,0.691l-0.891-1.969c0.703-0.367,1.473-0.646,2.309-0.838
		s1.625-0.287,2.367-0.287c1.648,0,2.893,0.359,3.732,1.078s1.26,1.848,1.26,3.387v8.73H161.899z M157.798,189.085
		c1,0,1.803-0.279,2.408-0.838s0.908-1.342,0.908-2.35v-1.125l-1.664,0.07c-1.297,0.047-2.24,0.264-2.83,0.65
		s-0.885,0.979-0.885,1.775c0,0.578,0.172,1.025,0.516,1.342S157.11,189.085,157.798,189.085z"/>
	<path style="fill:#0BB898;" d="M178.657,178v1.512l-2.215,0.41c0.203,0.273,0.371,0.609,0.504,1.008s0.199,0.82,0.199,1.266
		c0,1.336-0.461,2.387-1.383,3.152s-2.191,1.148-3.809,1.148c-0.414,0-0.789-0.031-1.125-0.094
		c-0.594,0.367-0.891,0.797-0.891,1.289c0,0.297,0.139,0.52,0.416,0.668s0.787,0.223,1.529,0.223h2.262
		c1.43,0,2.516,0.305,3.258,0.914s1.113,1.488,1.113,2.637c0,1.469-0.605,2.602-1.816,3.398s-2.961,1.195-5.25,1.195
		c-1.766,0-3.113-0.312-4.043-0.938s-1.395-1.516-1.395-2.672c0-0.797,0.252-1.467,0.756-2.01s1.209-0.92,2.115-1.131
		c-0.367-0.156-0.67-0.408-0.908-0.756s-0.357-0.713-0.357-1.096c0-0.484,0.137-0.895,0.41-1.23s0.68-0.668,1.219-0.996
		c-0.672-0.289-1.217-0.76-1.635-1.412s-0.627-1.416-0.627-2.291c0-1.406,0.443-2.496,1.33-3.27s2.15-1.16,3.791-1.16
		c0.367,0,0.752,0.025,1.154,0.076s0.705,0.104,0.908,0.158H178.657z M168.474,192.976c0,0.594,0.268,1.051,0.803,1.371
		s1.287,0.48,2.256,0.48c1.5,0,2.617-0.215,3.352-0.645s1.102-1,1.102-1.711c0-0.562-0.201-0.963-0.604-1.201
		s-1.15-0.357-2.244-0.357h-2.086c-0.789,0-1.416,0.186-1.881,0.557S168.474,192.343,168.474,192.976z M169.657,182.195
		c0,0.812,0.209,1.438,0.627,1.875s1.018,0.656,1.799,0.656c1.594,0,2.391-0.852,2.391-2.555c0-0.844-0.197-1.494-0.592-1.951
		s-0.994-0.686-1.799-0.686c-0.797,0-1.4,0.227-1.811,0.68S169.657,181.328,169.657,182.195z"/>
	<path style="fill:#0BB898;" d="M186.72,191.195c-2.016,0-3.592-0.588-4.729-1.764s-1.705-2.795-1.705-4.857
		c0-2.117,0.527-3.781,1.582-4.992s2.504-1.816,4.348-1.816c1.711,0,3.062,0.52,4.055,1.559s1.488,2.469,1.488,4.289v1.488h-8.637
		c0.039,1.258,0.379,2.225,1.02,2.9s1.543,1.014,2.707,1.014c0.766,0,1.479-0.072,2.139-0.217s1.369-0.385,2.127-0.721v2.238
		c-0.672,0.32-1.352,0.547-2.039,0.68S187.603,191.195,186.72,191.195z M186.216,179.851c-0.875,0-1.576,0.277-2.104,0.832
		s-0.842,1.363-0.943,2.426h5.883c-0.016-1.07-0.273-1.881-0.773-2.432S187.091,179.851,186.216,179.851z"/>
	<path style="fill:#0BB898;" d="M206.29,190.96h-2.766v-7.969c0-1-0.201-1.746-0.604-2.238s-1.041-0.738-1.916-0.738
		c-1.164,0-2.016,0.344-2.555,1.031s-0.809,1.84-0.809,3.457v6.457h-2.754V178h2.156l0.387,1.699h0.141
		c0.391-0.617,0.945-1.094,1.664-1.43s1.516-0.504,2.391-0.504c3.109,0,4.664,1.582,4.664,4.746V190.96z"/>
	<path style="fill:#0BB898;" d="M215.349,191.195c-1.961,0-3.451-0.572-4.471-1.717s-1.529-2.787-1.529-4.928
		c0-2.18,0.533-3.855,1.6-5.027s2.607-1.758,4.623-1.758c1.367,0,2.598,0.254,3.691,0.762l-0.832,2.215
		c-1.164-0.453-2.125-0.68-2.883-0.68c-2.242,0-3.363,1.488-3.363,4.465c0,1.453,0.279,2.545,0.838,3.275s1.377,1.096,2.455,1.096
		c1.227,0,2.387-0.305,3.48-0.914v2.402c-0.492,0.289-1.018,0.496-1.576,0.621S216.146,191.195,215.349,191.195z"/>
	<path style="fill:#0BB898;" d="M220.036,178h3l2.637,7.348c0.398,1.047,0.664,2.031,0.797,2.953h0.094
		c0.07-0.43,0.199-0.951,0.387-1.564s1.18-3.525,2.977-8.736h2.977l-5.543,14.684c-1.008,2.695-2.688,4.043-5.039,4.043
		c-0.609,0-1.203-0.066-1.781-0.199v-2.18c0.414,0.094,0.887,0.141,1.418,0.141c1.328,0,2.262-0.77,2.801-2.309l0.48-1.219
		L220.036,178z"/>
	<path style="fill:#0BB898;" d="M243.86,190.96h-2.754v-18.234h2.754V190.96z"/>
	<path style="fill:#0BB898;" d="M247.634,174.566c0-0.492,0.135-0.871,0.404-1.137s0.654-0.398,1.154-0.398
		c0.484,0,0.861,0.133,1.131,0.398s0.404,0.645,0.404,1.137c0,0.469-0.135,0.838-0.404,1.107s-0.646,0.404-1.131,0.404
		c-0.5,0-0.885-0.135-1.154-0.404S247.634,175.035,247.634,174.566z M250.552,190.96h-2.754V178h2.754V190.96z"/>
	<path style="fill:#0BB898;" d="M257.149,184.117l1.559-1.945l3.914-4.172h3.176l-5.215,5.566l5.543,7.395h-3.234l-4.16-5.684
		l-1.512,1.242v4.441h-2.73v-18.234h2.73v8.895l-0.141,2.496H257.149z"/>
	<path style="fill:#0BB898;" d="M273.872,191.195c-2.016,0-3.592-0.588-4.729-1.764s-1.705-2.795-1.705-4.857
		c0-2.117,0.527-3.781,1.582-4.992s2.504-1.816,4.348-1.816c1.711,0,3.062,0.52,4.055,1.559s1.488,2.469,1.488,4.289v1.488h-8.637
		c0.039,1.258,0.379,2.225,1.02,2.9s1.543,1.014,2.707,1.014c0.766,0,1.479-0.072,2.139-0.217s1.369-0.385,2.127-0.721v2.238
		c-0.672,0.32-1.352,0.547-2.039,0.68S274.755,191.195,273.872,191.195z M273.368,179.851c-0.875,0-1.576,0.277-2.104,0.832
		s-0.842,1.363-0.943,2.426h5.883c-0.016-1.07-0.273-1.881-0.773-2.432S274.243,179.851,273.368,179.851z"/>
	<path style="fill:#0BB898;" d="M299.677,190.96h-2.766v-7.969c0-1-0.201-1.746-0.604-2.238s-1.041-0.738-1.916-0.738
		c-1.164,0-2.016,0.344-2.555,1.031s-0.809,1.84-0.809,3.457v6.457h-2.754V178h2.156l0.387,1.699h0.141
		c0.391-0.617,0.945-1.094,1.664-1.43s1.516-0.504,2.391-0.504c3.109,0,4.664,1.582,4.664,4.746V190.96z"/>
	<path style="fill:#0BB898;" d="M315.005,184.457c0,2.117-0.543,3.77-1.629,4.957s-2.598,1.781-4.535,1.781
		c-1.211,0-2.281-0.273-3.211-0.82s-1.645-1.332-2.145-2.355s-0.75-2.211-0.75-3.562c0-2.102,0.539-3.742,1.617-4.922
		s2.598-1.77,4.559-1.77c1.875,0,3.359,0.604,4.453,1.811S315.005,182.41,315.005,184.457z M305.571,184.457
		c0,2.992,1.105,4.488,3.316,4.488c2.188,0,3.281-1.496,3.281-4.488c0-2.961-1.102-4.441-3.305-4.441
		c-1.156,0-1.994,0.383-2.514,1.148S305.571,183.027,305.571,184.457z"/>
	<path style="fill:#0BB898;" d="M335.899,184.457c0,2.117-0.543,3.77-1.629,4.957s-2.598,1.781-4.535,1.781
		c-1.211,0-2.281-0.273-3.211-0.82s-1.645-1.332-2.145-2.355s-0.75-2.211-0.75-3.562c0-2.102,0.539-3.742,1.617-4.922
		s2.598-1.77,4.559-1.77c1.875,0,3.359,0.604,4.453,1.811S335.899,182.41,335.899,184.457z M326.466,184.457
		c0,2.992,1.105,4.488,3.316,4.488c2.188,0,3.281-1.496,3.281-4.488c0-2.961-1.102-4.441-3.305-4.441
		c-1.156,0-1.994,0.383-2.514,1.148S326.466,183.027,326.466,184.457z"/>
	<path style="fill:#0BB898;" d="M343.892,188.968c0.672,0,1.344-0.105,2.016-0.316v2.074c-0.305,0.133-0.697,0.244-1.178,0.334
		s-0.979,0.135-1.494,0.135c-2.609,0-3.914-1.375-3.914-4.125v-6.984h-1.77v-1.219l1.898-1.008l0.938-2.742h1.699V178h3.691v2.086
		h-3.691v6.938c0,0.664,0.166,1.154,0.498,1.471S343.353,188.968,343.892,188.968z"/>
	<path style="fill:#0BB898;" d="M359.899,190.96h-2.766v-7.969c0-1-0.201-1.746-0.604-2.238s-1.041-0.738-1.916-0.738
		c-1.156,0-2.006,0.346-2.549,1.037s-0.814,1.85-0.814,3.475v6.434h-2.754v-18.234h2.754v4.629c0,0.742-0.047,1.535-0.141,2.379
		h0.176c0.375-0.625,0.896-1.109,1.564-1.453s1.447-0.516,2.338-0.516c3.141,0,4.711,1.582,4.711,4.746V190.96z"/>
	<path style="fill:#0BB898;" d="M369.392,191.195c-2.016,0-3.592-0.588-4.729-1.764s-1.705-2.795-1.705-4.857
		c0-2.117,0.527-3.781,1.582-4.992s2.504-1.816,4.348-1.816c1.711,0,3.062,0.52,4.055,1.559s1.488,2.469,1.488,4.289v1.488h-8.637
		c0.039,1.258,0.379,2.225,1.02,2.9s1.543,1.014,2.707,1.014c0.766,0,1.479-0.072,2.139-0.217s1.369-0.385,2.127-0.721v2.238
		c-0.672,0.32-1.352,0.547-2.039,0.68S370.274,191.195,369.392,191.195z M368.888,179.851c-0.875,0-1.576,0.277-2.104,0.832
		s-0.842,1.363-0.943,2.426h5.883c-0.016-1.07-0.273-1.881-0.773-2.432S369.763,179.851,368.888,179.851z"/>
	<path style="fill:#0BB898;" d="M384.134,177.765c0.555,0,1.012,0.039,1.371,0.117l-0.27,2.566
		c-0.391-0.094-0.797-0.141-1.219-0.141c-1.102,0-1.994,0.359-2.678,1.078s-1.025,1.652-1.025,2.801v6.773h-2.754V178h2.156
		l0.363,2.285h0.141c0.43-0.773,0.99-1.387,1.682-1.84S383.337,177.765,384.134,177.765z"/>
	<path style="fill:#0BB898;" d="M387.497,189.496c0-0.57,0.148-1.008,0.445-1.312s0.727-0.457,1.289-0.457
		c0.57,0,1.004,0.158,1.301,0.475s0.445,0.748,0.445,1.295c0,0.555-0.15,0.994-0.451,1.318s-0.732,0.486-1.295,0.486
		s-0.992-0.16-1.289-0.48S387.497,190.058,387.497,189.496z"/>
</g>
<g>
	<path style="fill:#4CB29F;" d="M286.13,570.383L4.458,288.71L286.13,7.04L567.802,288.71L286.13,570.383z M7.306,288.71
		L286.13,567.533L564.953,288.71L286.13,9.888L7.306,288.71z"/>
</g>
<circle style="fill:#FAE6EB;" cx="864.541" cy="414.961" r="7"/>
<circle style="fill:#A7C6C0;" cx="457.541" cy="365.961" r="7"/>
<rect x="101.708" y="298.46" style="fill:#E8E7CD;" width="217" height="4"/>
</svg>
